<?xml version="1.0" standalone="no"?>
<!DOCTYPE svg PUBLIC "-//W3C//DTD SVG 20010904//EN"
 "http://www.w3.org/TR/2001/REC-SVG-20010904/DTD/svg10.dtd">
<svg version="1.0" xmlns="http://www.w3.org/2000/svg"
 width="700.000000pt" height="700.000000pt" viewBox="0 0 700.000000 700.000000"
 preserveAspectRatio="xMidYMid meet">
<metadata>
Created by potrace 1.11, written by Peter Selinger 2001-2013
</metadata>
<g transform="translate(0.000000,700.000000) scale(0.100000,-0.100000)"
fill="#000000" stroke="none">
<path d="M0 3500 l0 -3500 3500 0 3500 0 0 3500 0 3500 -3500 0 -3500 0 0
-3500z m6690 0 l0 -3190 -3190 0 -3190 0 0 3190 0 3190 3190 0 3190 0 0 -3190z"/>
<path d="M2362 3538 l3 -1373 418 -3 417 -2 0 239 0 239 68 73 68 72 244 -307
c133 -169 248 -310 254 -312 6 -2 234 -3 507 -2 l496 3 -448 570 c-247 314
-449 572 -449 575 0 3 187 201 414 440 l415 435 -492 3 -492 3 -292 -298 -293
-298 0 658 0 657 -420 0 -420 0 2 -1372z"/>
</g>
</svg>
